<svg width="20" height="16" viewBox="0 0 20 16" fill="none" xmlns="http://www.w3.org/2000/svg">
<path d="M19.6875 14.25H1.25V0.8125C1.25 0.639844 1.11016 0.5 0.9375 0.5H0.3125C0.139844 0.5 0 0.639844 0 0.8125V14.875C0 15.2203 0.279687 15.5 0.625 15.5H19.6875C19.8602 15.5 20 15.3602 20 15.1875V14.5625C20 14.3898 19.8602 14.25 19.6875 14.25ZM3.84141 8.27461C3.71953 8.39648 3.71953 8.59453 3.84141 8.71641L4.2832 9.1582C4.40508 9.28008 4.60312 9.28008 4.725 9.1582L7.56445 6.34531L10.8727 9.65352C11.1168 9.89766 11.5125 9.89766 11.7566 9.65352L15.4102 6L17.1305 7.72031C17.3238 7.91367 17.5613 8 17.7945 8C18.282 8 18.75 7.62109 18.75 7.04922V2.38242C18.75 2.0332 18.4668 1.75 18.1176 1.75H13.4508C12.6055 1.75 12.1824 2.77188 12.7801 3.36953L14.5266 5.11602L11.3148 8.32773L8.00898 5.02187C7.76562 4.77852 7.37148 4.77773 7.12734 5.01992L3.84141 8.27461ZM14.1781 3H17.5V6.32187L14.1781 3Z" fill="#7367F0"/>
</svg>
