<svg width="24" height="25" viewBox="0 0 24 25" fill="none" xmlns="http://www.w3.org/2000/svg">
<path d="M20.0592 4.69914C17.9303 2.88663 14.7467 3.18741 12.7701 5.22649L12.0006 6.02337L11.231 5.2304C9.63727 3.58195 6.4224 2.58975 3.9419 4.69914C1.48876 6.79291 1.35985 10.5508 3.55518 12.8164L11.1138 20.6212C11.356 20.8712 11.6764 21.0001 11.9967 21.0001C12.317 21.0001 12.6373 20.8751 12.8795 20.6212L20.4382 12.8164C22.6413 10.5508 22.5124 6.79291 20.0592 4.69914V4.69914ZM19.5475 11.9492L12.0162 19.754L4.45363 11.9492C2.95361 10.4023 2.64111 7.45308 4.75441 5.65228C6.89506 3.82414 9.41071 5.14837 10.3326 6.1015L12.0006 7.82417L13.6686 6.1015C14.5748 5.16399 17.1139 3.83585 19.2467 5.65228C21.3561 7.44917 21.0475 10.3984 19.5475 11.9492Z" fill="#FF9F43"/>
</svg>
