<svg width="47" height="55" viewBox="0 0 47 55" fill="none" xmlns="http://www.w3.org/2000/svg">
<path d="M32.8334 31.2056C29.8438 31.2056 28.4063 32.8861 23.5001 32.8861C18.5938 32.8861 17.1667 31.2056 14.1667 31.2056C6.43758 31.2056 0.166748 37.5286 0.166748 45.3222V49.6917C0.166748 52.4751 2.40633 54.7333 5.16675 54.7333H41.8334C44.5938 54.7333 46.8334 52.4751 46.8334 49.6917V45.3222C46.8334 37.5286 40.5626 31.2056 32.8334 31.2056ZM43.5001 49.6917C43.5001 50.616 42.7501 51.3722 41.8334 51.3722H5.16675C4.25008 51.3722 3.50008 50.616 3.50008 49.6917V45.3222C3.50008 39.3878 8.28133 34.5667 14.1667 34.5667C16.2084 34.5667 18.2397 36.2472 23.5001 36.2472C28.7501 36.2472 30.7917 34.5667 32.8334 34.5667C38.7188 34.5667 43.5001 39.3878 43.5001 45.3222V49.6917ZM23.5001 27.8444C30.8647 27.8444 36.8334 21.826 36.8334 14.4C36.8334 6.97404 30.8647 0.955551 23.5001 0.955551C16.1355 0.955551 10.1667 6.97404 10.1667 14.4C10.1667 21.826 16.1355 27.8444 23.5001 27.8444ZM23.5001 4.31666C29.0105 4.31666 33.5001 8.84366 33.5001 14.4C33.5001 19.9563 29.0105 24.4833 23.5001 24.4833C17.9897 24.4833 13.5001 19.9563 13.5001 14.4C13.5001 8.84366 17.9897 4.31666 23.5001 4.31666Z" fill="#00CFE8"/>
</svg>
