<svg width="15" height="21" viewBox="0 0 15 21" fill="none" xmlns="http://www.w3.org/2000/svg">
<path d="M7.50007 4.24811C5.4325 4.24811 3.75008 5.93053 3.75008 7.9981C3.75008 10.0657 5.4325 11.7481 7.50007 11.7481C9.56764 11.7481 11.2501 10.0657 11.2501 7.9981C11.2501 5.93053 9.56803 4.24811 7.50007 4.24811V4.24811ZM7.50007 10.4981C6.12156 10.4981 5.00008 9.37661 5.00008 7.9981C5.00008 6.61959 6.12156 5.49811 7.50007 5.49811C8.87858 5.49811 10.0001 6.61959 10.0001 7.9981C10.0001 9.37661 8.87858 10.4981 7.50007 10.4981ZM14.3606 11.1379C14.9098 10.5789 15.1258 9.75786 14.9258 8.99497C14.6762 8.04966 14.6762 8.19614 14.9258 7.24927C15.1262 6.48678 14.9098 5.66608 14.3606 5.10631C13.6739 4.41413 13.7524 4.53249 13.5047 3.5989C13.3036 2.8321 12.709 2.22859 11.9532 2.02312C11.043 1.77625 11.1477 1.84422 10.4786 1.15516C9.9231 0.591879 9.1067 0.370786 8.3485 0.576254C7.43054 0.83055 7.56335 0.826644 6.65046 0.576254C5.89851 0.368833 5.07703 0.591879 4.52156 1.15633C3.84579 1.84656 3.96649 1.77234 3.04813 2.02312C2.29149 2.22859 1.69697 2.8321 1.4954 3.59812C1.24697 4.53717 1.32431 4.41335 0.639548 5.1067C0.0903318 5.66608 -0.125683 6.48717 0.0747068 7.25005C0.324315 8.19419 0.324315 8.04771 0.0747068 8.99575C-0.125683 9.75825 0.0907223 10.5789 0.639939 11.1387C1.32665 11.8309 1.24814 11.7125 1.49579 12.6461C1.57431 12.9446 1.72665 13.2071 1.91064 13.4422L0.0469725 18.0274C-0.121386 18.4402 0.184081 18.8883 0.624705 18.8883C0.646189 18.8883 0.511033 18.893 2.70751 18.809L4.12352 20.3047C4.2493 20.4375 4.41336 20.5 4.57586 20.5C4.81687 20.5 5.05359 20.3621 5.15633 20.1109L7.20515 15.0707C7.39641 15.0052 7.60403 15.005 7.79538 15.0703L9.84381 20.1109C9.94615 20.3621 10.1833 20.5 10.4243 20.5C10.5868 20.5 10.7508 20.4375 10.8766 20.3047L12.2926 18.8094C14.4891 18.8934 14.3539 18.8887 14.3754 18.8887C14.8161 18.8887 15.1215 18.4406 14.9532 18.0277L13.0899 13.443C13.2739 13.2078 13.4262 12.9453 13.5047 12.6473C13.7532 11.7075 13.6758 11.8313 14.3606 11.1379V11.1379ZM4.36414 18.7402C3.48172 17.8082 3.71727 18.057 3.22626 17.5383C2.51142 17.5656 2.85712 17.5524 1.56962 17.602L2.95829 14.1848C2.98915 14.1949 3.01571 14.2141 3.04735 14.2227C3.90164 14.4516 3.84657 14.4024 4.28133 14.8442C4.66961 15.2403 5.17156 15.4524 5.68601 15.4887L4.36414 18.7402V18.7402ZM13.4309 17.6016C12.1454 17.5524 12.4883 17.5656 11.7743 17.5383C11.2836 18.0566 11.5188 17.8082 10.6364 18.7402L9.31217 15.4824C9.82818 15.4469 10.3301 15.2399 10.7192 14.8438C11.1649 14.3903 11.1032 14.4457 11.9532 14.2223C11.9848 14.2137 12.0114 14.1946 12.0422 14.1848L13.4309 17.6016V17.6016ZM12.2961 12.3285C12.2083 12.6637 11.9508 12.9274 11.6235 13.0164C10.7008 13.2606 10.5145 13.2684 9.82779 13.9684C9.51529 14.2852 9.03912 14.3438 8.66569 14.1043C7.95749 13.6574 7.04226 13.6571 6.33406 14.1051C5.96296 14.3406 5.48445 14.2856 5.17195 13.9676C4.49305 13.277 4.30789 13.2664 3.37626 13.016C3.04891 12.927 2.79149 12.6633 2.7036 12.3278C2.38876 11.1313 2.40946 11.1485 1.53056 10.2625C1.28876 10.0161 1.19345 9.65239 1.2829 9.31294C1.60126 8.12271 1.60322 8.12232 1.2829 6.93209C1.19384 6.59263 1.28915 6.22896 1.53056 5.98287C2.40634 5.09616 2.38759 5.12116 2.7036 3.91608C2.79149 3.58093 3.04891 3.31726 3.37626 3.22898C4.57899 2.90046 4.53563 2.92429 5.41258 2.03289C5.6157 1.82547 5.95242 1.68289 6.32195 1.7825C7.51179 2.10984 7.48796 2.11062 8.67662 1.7825C8.99655 1.69383 9.34811 1.78992 9.58717 2.03133C10.4579 2.92468 10.4415 2.90788 11.6247 3.22898C11.9504 3.31765 12.2083 3.58132 12.2961 3.91687C12.611 5.11334 12.5903 5.09616 13.4692 5.98209C13.711 6.22857 13.8063 6.59224 13.7168 6.9317C13.3969 8.12388 13.3981 8.12466 13.7168 9.31255C13.8059 9.652 13.7106 10.0157 13.4692 10.2618C12.5938 11.1489 12.6122 11.1235 12.2961 12.3285V12.3285Z" fill="#28C76F"/>
</svg>
